<svg width="375" height="118" viewBox="0 0 375 118" fill="none" xmlns="http://www.w3.org/2000/svg">
<g filter="url(#filter0_d_1642_1488)">
<rect width="375" height="105" fill="white"/>
<path fill-rule="evenodd" clip-rule="evenodd" d="M342.058 35.229C337.983 35.229 334.612 38.2879 334.12 42.231C334.051 42.779 334.505 43.229 335.058 43.229C335.61 43.229 336.049 42.7779 336.14 42.2332C336.616 39.3972 339.089 37.229 342.058 37.229C345.027 37.229 347.499 39.3972 347.975 42.2332C348.066 42.7779 348.505 43.229 349.058 43.229C349.61 43.229 350.064 42.779 349.996 42.231C349.503 38.2879 346.133 35.229 342.058 35.229Z" fill="#34AADD"/>
<path d="M342.058 33.229C344.264 33.229 346.058 31.435 346.058 29.229C346.058 27.023 344.264 25.229 342.058 25.229C339.852 25.229 338.058 27.023 338.058 29.229C338.058 31.435 339.852 33.229 342.058 33.229" stroke="#34AADD" stroke-width="2"/>
<g clip-path="url(#clip0_1642_1488)">
<path fill-rule="evenodd" clip-rule="evenodd" d="M35.5889 17.0834C38.6993 17.0096 41.7549 17.9104 44.3282 19.6597C46.9014 21.409 48.8634 23.9192 49.9397 26.839C51.016 29.7588 51.1528 32.9421 50.3308 35.9435C49.9671 37.2718 48.5956 38.0536 47.2676 37.6898C45.9395 37.326 45.1578 35.9543 45.5216 34.6261C46.0688 32.6277 45.9778 30.5082 45.2612 28.5642C44.5445 26.6202 43.2383 24.9489 41.5251 23.7843C39.812 22.6198 37.7778 22.0201 35.7071 22.0692C33.6364 22.1183 31.6329 22.8137 29.9768 24.0582C28.3208 25.3027 27.0952 27.034 26.4715 29.0098C25.8478 30.9856 25.8573 33.1071 26.4986 35.0772C27.1399 37.0474 28.381 38.7676 30.0481 39.9973C31.7152 41.2269 33.7248 41.9044 35.7959 41.935C37.1727 41.9553 38.2723 43.0881 38.252 44.4652C38.2317 45.8422 37.099 46.942 35.7222 46.9217C32.6113 46.8757 29.5925 45.858 27.0885 44.0111C24.5844 42.1641 22.7204 39.5802 21.7571 36.6212C20.7939 33.6621 20.7797 30.4759 21.7164 27.5083C22.6532 24.5408 24.4941 21.9404 26.9815 20.0711L28.4792 22.0647L26.9815 20.0711C29.4689 18.2018 32.4785 17.1571 35.5889 17.0834Z" fill="#121920"/>
<path d="M47.1634 41.7101C47.1634 43.7981 45.471 45.4908 43.3834 45.4908C41.2957 45.4908 39.6033 43.7981 39.6033 41.7101C39.6033 39.6221 41.2957 37.9294 43.3834 37.9294C45.471 37.9294 47.1634 39.6221 47.1634 41.7101Z" fill="#F95A59"/>
<path fill-rule="evenodd" clip-rule="evenodd" d="M81.4567 40.9581H76.477L75.7734 40.0379C74.7991 40.4168 73.933 40.6874 73.1753 40.9039C72.4175 41.0663 71.6056 41.1746 70.6854 41.1746C67.6543 41.1746 65.2727 40.4168 63.5947 38.9554C61.8085 37.4398 60.9425 35.1123 60.9425 32.1353C60.9425 29.1042 61.7544 26.7767 63.3241 25.207C64.9479 23.6373 67.3836 22.8254 70.6854 22.8254C73.8789 22.8254 76.3146 23.6915 77.9926 25.3694C79.454 26.8309 80.1577 28.7253 80.1577 30.9987C80.1577 32.6766 80.1036 33.9215 79.9412 34.6793C79.7247 35.8701 79.1834 37.0068 78.4256 38.0352L81.4567 40.9581ZM75.7734 31.9729C75.7734 30.3491 75.4486 29.0501 74.745 28.0217C73.8789 26.7226 72.4716 26.0731 70.6313 26.0731C68.8992 26.0731 67.546 26.5602 66.68 27.5886C65.814 28.5629 65.3809 30.0244 65.3809 31.9188C65.3809 34.0298 65.8681 35.5995 66.8965 36.5738C67.8167 37.4398 69.1698 37.8728 70.956 37.8728C72.5799 37.8728 73.7707 37.3857 74.5826 36.4114C75.3945 35.383 75.7734 33.9215 75.7734 31.9729Z" fill="#F95A59"/>
<path fill-rule="evenodd" clip-rule="evenodd" d="M100.239 35.383C100.239 36.9527 99.698 38.2517 98.6696 39.3343C97.6411 40.4168 96.3421 40.9039 94.7183 40.9039H82.269V37.7104H92.6073C93.311 37.7104 93.9064 37.5481 94.3394 37.2233C94.8806 36.8444 95.1513 36.3573 95.1513 35.7077C95.1513 34.1922 94.0687 33.4344 91.9578 33.4344H86.7616C85.246 33.4344 83.9469 32.9472 82.8103 32.0271C81.6736 31.1069 81.1323 29.9161 81.1323 28.4547C81.1323 26.885 81.6736 25.5859 82.8103 24.6116C83.8928 23.6374 85.3543 23.1502 87.1946 23.1502H99.1567V26.1813H88.5478C88.0606 26.1813 87.5735 26.3978 87.1405 26.7767C86.5992 27.1556 86.3827 27.6428 86.3827 28.184C86.3827 28.7794 86.5992 29.3207 87.0863 29.6996C87.5735 30.1326 88.1147 30.295 88.7643 30.295H94.5018C96.288 30.295 97.6953 30.7821 98.7237 31.7023C99.7521 32.6225 100.239 33.8674 100.239 35.383Z" fill="#F95A59"/>
<path fill-rule="evenodd" clip-rule="evenodd" d="M120.699 31.973C120.699 35.4371 119.725 37.8728 117.831 39.3884C116.261 40.5792 113.988 41.1746 111.065 41.1746C107.763 41.1746 105.327 40.4709 103.758 39.1178C102.025 37.6022 101.159 35.1665 101.159 31.8106C101.159 29.0501 101.917 26.885 103.487 25.3694C105.165 23.6915 107.655 22.8796 111.011 22.8796C114.691 22.8796 117.235 23.6915 118.751 25.2612C120.05 26.6685 120.699 28.8877 120.699 31.973ZM116.153 31.8647C116.153 30.1326 115.72 28.7253 114.908 27.6969C113.988 26.5602 112.58 25.9648 110.794 25.9648C109.008 25.9648 107.655 26.5602 106.735 27.8052C105.977 28.8336 105.598 30.1868 105.598 31.8106C105.598 33.705 105.923 35.1123 106.518 36.0325C107.384 37.2774 108.9 37.927 111.227 37.927C113.176 37.927 114.529 37.3316 115.287 36.0866C115.882 35.2206 116.153 33.7592 116.153 31.8647Z" fill="#F95A59"/>
<path fill-rule="evenodd" clip-rule="evenodd" d="M138.507 33.4885H126.274V40.8498H121.89V29.9702C121.89 29.3207 121.998 28.5629 122.269 27.751C122.756 26.2896 123.676 25.207 125.029 24.4493C126.599 23.5832 129.197 23.1502 132.769 23.1502C140.401 23.1502 148.033 23.1502 155.665 23.1502V26.1272H149.062V40.8498H144.948V26.1272C140.726 26.1272 136.721 26.0731 132.499 26.0731C130.875 26.0731 129.738 26.1813 129.089 26.3437C127.952 26.6144 127.194 27.2639 126.707 28.184C126.328 28.8877 126.166 29.6455 126.166 30.5115H138.507V33.4885Z" fill="#F95A59"/>
</g>
<rect opacity="0.5" width="375" height="1" transform="matrix(1 0 0 -1 0 64)" fill="#BBC4D6"/>
<g clip-path="url(#clip1_1642_1488)">
<g clip-path="url(#clip2_1642_1488)">
<path d="M40 91.9999L35.0962 87.0961M35.0962 87.0961C36.2725 85.9198 37 84.2948 37 82.4999C37 78.91 34.0899 75.9999 30.5 75.9999C26.9101 75.9999 24 78.91 24 82.4999C24 86.0897 26.9101 88.9999 30.5 88.9999C32.2949 88.9999 33.9199 88.2723 35.0962 87.0961Z" stroke="#768298" stroke-width="1.8" stroke-linecap="round" stroke-linejoin="round"/>
<path d="M57.8047 88.9999H56.4854V84.3993H51.4678V88.9999H50.1553V79.0468H51.4678V83.326H56.4854V79.0468H57.8047V88.9999ZM64.5039 88.9999C64.431 88.854 64.3717 88.5943 64.3262 88.2206C63.7383 88.8313 63.0365 89.1366 62.2207 89.1366C61.4915 89.1366 60.8923 88.9315 60.4229 88.5214C59.958 88.1066 59.7256 87.5826 59.7256 86.9491C59.7256 86.1789 60.0173 85.5819 60.6006 85.1581C61.1885 84.7297 62.0133 84.5155 63.0752 84.5155H64.3057V83.9344C64.3057 83.4924 64.1735 83.1415 63.9092 82.8817C63.6449 82.6174 63.2552 82.4852 62.7402 82.4852C62.2891 82.4852 61.9108 82.5992 61.6055 82.827C61.3001 83.0549 61.1475 83.3306 61.1475 83.6542H59.876C59.876 83.285 60.0059 82.9296 60.2656 82.5878C60.5299 82.2414 60.8854 81.968 61.332 81.7675C61.7832 81.5669 62.2777 81.4667 62.8154 81.4667C63.6676 81.4667 64.3353 81.6809 64.8184 82.1093C65.3014 82.5331 65.5521 83.1187 65.5703 83.8661V87.2704C65.5703 87.9494 65.6569 88.4895 65.8301 88.8905V88.9999H64.5039ZM62.4053 88.036C62.8018 88.036 63.1777 87.9335 63.5332 87.7284C63.8887 87.5233 64.1462 87.2567 64.3057 86.9286V85.411H63.3145C61.765 85.411 60.9902 85.8645 60.9902 86.7714C60.9902 87.1678 61.1224 87.4777 61.3867 87.701C61.651 87.9244 61.9906 88.036 62.4053 88.036ZM72.3379 81.6034H73.6025V88.9999H72.3379V83.6063L68.9268 88.9999H67.6621V81.6034H68.9268V87.0038L72.3379 81.6034ZM72.6797 78.91C72.6797 79.4615 72.4906 79.9058 72.1123 80.243C71.7386 80.5757 71.2464 80.7421 70.6357 80.7421C70.0251 80.7421 69.5306 80.5734 69.1523 80.2362C68.7741 79.899 68.585 79.4569 68.585 78.91H69.6172C69.6172 79.229 69.7038 79.4797 69.877 79.662C70.0501 79.8397 70.3031 79.9286 70.6357 79.9286C70.9548 79.9286 71.2031 79.8397 71.3809 79.662C71.5632 79.4843 71.6543 79.2336 71.6543 78.91H72.6797ZM81.1289 82.6288H78.6475V88.9999H77.3828V82.6288H74.9492V81.6034H81.1289V82.6288ZM87.1445 81.6034H88.4092V88.9999H87.1445V83.6063L83.7334 88.9999H82.4688V81.6034H83.7334V87.0038L87.1445 81.6034ZM90.4668 88.3368C90.4668 88.118 90.5306 87.9358 90.6582 87.7899C90.7904 87.6441 90.9863 87.5712 91.2461 87.5712C91.5059 87.5712 91.7018 87.6441 91.834 87.7899C91.9707 87.9358 92.0391 88.118 92.0391 88.3368C92.0391 88.5464 91.9707 88.7219 91.834 88.8632C91.7018 89.0044 91.5059 89.0751 91.2461 89.0751C90.9863 89.0751 90.7904 89.0044 90.6582 88.8632C90.5306 88.7219 90.4668 88.5464 90.4668 88.3368ZM94.1582 88.3368C94.1582 88.118 94.222 87.9358 94.3496 87.7899C94.4818 87.6441 94.6777 87.5712 94.9375 87.5712C95.1973 87.5712 95.3932 87.6441 95.5254 87.7899C95.6621 87.9358 95.7305 88.118 95.7305 88.3368C95.7305 88.5464 95.6621 88.7219 95.5254 88.8632C95.3932 89.0044 95.1973 89.0751 94.9375 89.0751C94.6777 89.0751 94.4818 89.0044 94.3496 88.8632C94.222 88.7219 94.1582 88.5464 94.1582 88.3368ZM97.8496 88.3368C97.8496 88.118 97.9134 87.9358 98.041 87.7899C98.1732 87.6441 98.3691 87.5712 98.6289 87.5712C98.8887 87.5712 99.0846 87.6441 99.2168 87.7899C99.3535 87.9358 99.4219 88.118 99.4219 88.3368C99.4219 88.5464 99.3535 88.7219 99.2168 88.8632C99.0846 89.0044 98.8887 89.0751 98.6289 89.0751C98.3691 89.0751 98.1732 89.0044 98.041 88.8632C97.9134 88.7219 97.8496 88.5464 97.8496 88.3368Z" fill="#BBC4D6"/>
</g>
</g>
</g>
<defs>
<filter id="filter0_d_1642_1488" x="-10" y="-7" width="395" height="125" filterUnits="userSpaceOnUse" color-interpolation-filters="sRGB">
<feFlood flood-opacity="0" result="BackgroundImageFix"/>
<feColorMatrix in="SourceAlpha" type="matrix" values="0 0 0 0 0 0 0 0 0 0 0 0 0 0 0 0 0 0 127 0" result="hardAlpha"/>
<feOffset dy="3"/>
<feGaussianBlur stdDeviation="5"/>
<feColorMatrix type="matrix" values="0 0 0 0 0 0 0 0 0 0 0 0 0 0 0 0 0 0 0.05 0"/>
<feBlend mode="normal" in2="BackgroundImageFix" result="effect1_dropShadow_1642_1488"/>
<feBlend mode="normal" in="SourceGraphic" in2="effect1_dropShadow_1642_1488" result="shape"/>
</filter>
<clipPath id="clip0_1642_1488">
<rect width="135" height="30" fill="white" transform="translate(20.9425 17)"/>
</clipPath>
<clipPath id="clip1_1642_1488">
<rect y="63.9999" width="375" height="40" rx="6" fill="white"/>
</clipPath>
<clipPath id="clip2_1642_1488">
<rect width="81" height="24" fill="white" transform="translate(20 71.9999)"/>
</clipPath>
</defs>
</svg>
